<svg width="1200" height="720" viewBox="0 0 1200 720" fill="none" xmlns="http://www.w3.org/2000/svg">
  <defs>
    <linearGradient id="bg" x1="0" y1="0" x2="1200" y2="720" gradientUnits="userSpaceOnUse">
      <stop stop-color="#0D2338"/>
      <stop offset="1" stop-color="#102A24"/>
    </linearGradient>
    <linearGradient id="bubble" x1="0" y1="0" x2="1" y2="1">
      <stop stop-color="#79F2C5"/>
      <stop offset="1" stop-color="#2FD0A0"/>
    </linearGradient>
  </defs>
  <rect width="1200" height="720" rx="28" fill="url(#bg)"/>
  <rect x="88" y="72" width="420" height="576" rx="42" fill="#0A1622" stroke="#2D3E54"/>
  <rect x="112" y="128" width="372" height="70" rx="16" fill="#112436"/>
  <rect x="132" y="148" width="212" height="30" rx="8" fill="#1A324A"/>
  <rect x="112" y="222" width="320" height="84" rx="20" fill="#193249"/>
  <rect x="176" y="330" width="308" height="84" rx="20" fill="url(#bubble)" fill-opacity="0.25"/>
  <rect x="112" y="438" width="260" height="72" rx="18" fill="#18334A"/>
  <rect x="388" y="438" width="96" height="72" rx="18" fill="#1E3D59"/>
  <rect x="560" y="118" width="560" height="118" rx="24" fill="#11283D" stroke="#2F4E67"/>
  <rect x="560" y="264" width="268" height="172" rx="24" fill="#11283D" stroke="#2F4E67"/>
  <rect x="852" y="264" width="268" height="172" rx="24" fill="#11283D" stroke="#2F4E67"/>
  <rect x="560" y="464" width="560" height="154" rx="24" fill="#10273A" stroke="#2F4E67"/>
  <circle cx="1018" cy="162" r="20" fill="#79F2C5" fill-opacity="0.75"/>
  <circle cx="1068" cy="162" r="20" fill="#79F2C5" fill-opacity="0.4"/>
</svg>
