<svg width="1200" height="720" viewBox="0 0 1200 720" fill="none" xmlns="http://www.w3.org/2000/svg">
  <defs>
    <linearGradient id="bg" x1="0" y1="0" x2="1200" y2="720" gradientUnits="userSpaceOnUse">
      <stop stop-color="#15142A"/>
      <stop offset="1" stop-color="#0C1E2E"/>
    </linearGradient>
    <linearGradient id="bar" x1="0" y1="1" x2="0" y2="0">
      <stop stop-color="#52E5C1"/>
      <stop offset="1" stop-color="#7D8EFF"/>
    </linearGradient>
  </defs>
  <rect width="1200" height="720" rx="28" fill="url(#bg)"/>
  <rect x="64" y="64" width="230" height="592" rx="24" fill="#121A2B" stroke="#2A3550"/>
  <rect x="328" y="64" width="808" height="132" rx="24" fill="#131E31" stroke="#304364"/>
  <rect x="328" y="224" width="508" height="286" rx="24" fill="#121F34" stroke="#304364"/>
  <rect x="864" y="224" width="272" height="286" rx="24" fill="#121F34" stroke="#304364"/>
  <rect x="328" y="536" width="808" height="120" rx="24" fill="#121F34" stroke="#304364"/>
  <rect x="370" y="410" width="40" height="70" rx="10" fill="url(#bar)"/>
  <rect x="430" y="352" width="40" height="128" rx="10" fill="url(#bar)"/>
  <rect x="490" y="304" width="40" height="176" rx="10" fill="url(#bar)"/>
  <rect x="550" y="334" width="40" height="146" rx="10" fill="url(#bar)"/>
  <rect x="610" y="274" width="40" height="206" rx="10" fill="url(#bar)"/>
  <rect x="670" y="300" width="40" height="180" rx="10" fill="url(#bar)"/>
  <rect x="730" y="366" width="40" height="114" rx="10" fill="url(#bar)"/>
  <circle cx="938" cy="302" r="14" fill="#7D8EFF"/>
  <circle cx="980" cy="302" r="14" fill="#52E5C1"/>
  <circle cx="1022" cy="302" r="14" fill="#7D8EFF" fill-opacity="0.5"/>
</svg>
